<svg xmlns="http://www.w3.org/2000/svg" viewBox="0 0 100 100">
  <rect width="100" height="100" fill="transparent"/>
  <g transform="translate(2 2)">
    <path d="M22 46 C20 24 36 14 50 14 C66 14 78 26 76 46 L70 46 C71 30 62 21 50 21 C37 21 27 30 28 46 Z" fill="#1b2153"/>
    <circle cx="18" cy="38" r="9" fill="#1b2153"/>
    <circle cx="18" cy="38" r="3.2" fill="#e9a13b"/>
    <circle cx="49" cy="36" r="3.4" fill="#d6156c"/>
    <g stroke="#e9a13b" stroke-width="3.4" fill="none">
      <circle cx="36" cy="54" r="11.5"/>
      <circle cx="62" cy="54" r="11.5"/>
      <path d="M47.5 52 Q49 50.5 50.5 52"/>
      <path d="M24.5 51 L20 48.5 M73.5 51 L78 48.5" stroke-linecap="round"/>
    </g>
    <g stroke="#1b2153" stroke-width="2.6" stroke-linecap="round">
      <path d="M31 54.5 L41 54.5 M57 54.5 L67 54.5"/>
      <path d="M43 76 Q49 79 55 76" fill="none"/>
    </g>
    <g fill="#1b2153">
      <circle cx="21.5" cy="62" r="2.6"/>
      <circle cx="76.5" cy="62" r="2.6"/>
      <circle cx="21.5" cy="67.5" r="1.6"/>
      <circle cx="76.5" cy="67.5" r="1.6"/>
    </g>
  </g>
</svg>